<?xml version="1.0" encoding="utf-8"?>
<!-- Generator: Adobe Illustrator 24.0.3, SVG Export Plug-In . SVG Version: 6.00 Build 0)  -->
<svg version="1.1" id="Calque_1" xmlns="http://www.w3.org/2000/svg" xmlns:xlink="http://www.w3.org/1999/xlink" x="0px" y="0px"
	 viewBox="0 0 2500 741" style="enable-background:new 0 0 2500 741;" xml:space="preserve">
<style type="text/css">
	.st0{fill:#ffffff;}
	.st1{fill:#000000;}
	.st2{fill:url(#SVGID_1_);}
</style>
<g transform="scale(4.00216 4.0011)">
	<path class="st0" d="M620.7,163.3c0,9.8-7.9,17.7-17.7,17.7c0,0,0,0,0,0h-581c-9.8,0-17.8-7.9-17.8-17.7V21.9
		c0-9.8,8-17.8,17.8-17.8h581c9.8,0,17.8,7.9,17.8,17.8c0,0,0,0,0,0L620.7,163.3L620.7,163.3z"/>
	<path class="st1" d="M602.9,185.2h-581C9.8,185.2,0,175.4,0,163.3V21.9C0,9.8,9.8,0,21.9,0h581c12.1,0,21.9,9.8,21.9,21.9v141.4
		C624.8,175.4,615,185.2,602.9,185.2L602.9,185.2z"/>
	<path d="M620.7,163.3c0,9.8-7.9,17.7-17.7,17.7c0,0,0,0,0,0h-581c-9.8,0-17.8-7.9-17.8-17.7V21.9c0-9.8,8-17.8,17.8-17.8h581
		c9.8,0,17.8,7.9,17.8,17.8c0,0,0,0,0,0L620.7,163.3L620.7,163.3z"/>
	<path class="st0" d="M139.5,91.6c-0.1-14.9,12.2-22.2,12.8-22.5c-7-10.2-17.8-11.6-21.7-11.7c-9.1-1-17.9,5.5-22.6,5.5
		c-4.7,0-11.9-5.4-19.6-5.2c-9.9,0.2-19.2,5.9-24.3,14.8c-10.5,18.2-2.7,44.9,7.4,59.5c5,7.2,10.9,15.2,18.6,14.9
		c7.5-0.3,10.3-4.8,19.4-4.8c9,0,11.6,4.8,19.5,4.6c8.1-0.1,13.2-7.2,18-14.5c5.8-8.2,8.1-16.4,8.2-16.8
		C155.2,115.4,139.7,109.5,139.5,91.6L139.5,91.6z M124.7,47.7c4-5.1,6.8-11.9,6-18.9c-5.9,0.3-13.2,4.1-17.4,9
		c-3.7,4.4-7.1,11.5-6.2,18.2C113.7,56.5,120.5,52.7,124.7,47.7L124.7,47.7z"/>
	
		<linearGradient id="SVGID_1_" gradientUnits="userSpaceOnUse" x1="65.6784" y1="202.7666" x2="65.6784" y2="238.8116" gradientTransform="matrix(74.1746 0 0 -74.1346 -4413.4019 15217.6992)">
		<stop  offset="0" style="stop-color:#1A1A1A;stop-opacity:0.1"/>
		<stop  offset="0.123" style="stop-color:#212121;stop-opacity:0.151"/>
		<stop  offset="0.308" style="stop-color:#353535;stop-opacity:0.227"/>
		<stop  offset="0.532" style="stop-color:#575757;stop-opacity:0.318"/>
		<stop  offset="0.783" style="stop-color:#858585;stop-opacity:0.421"/>
		<stop  offset="1" style="stop-color:#B3B3B3;stop-opacity:0.51"/>
	</linearGradient>
	<path class="st2" d="M602.9,0H291.7l121.9,185.2h189.3c12.1,0,21.9-9.8,21.9-21.9V21.9C624.8,9.8,615,0,602.9,0z"/>
	<g>
		<path class="st0" d="M248.5,145.9H238l-5.8-18.1h-20l-5.5,18.1h-10.2l19.8-61.6h12.3L248.5,145.9L248.5,145.9z M230.5,120.2
			l-5.2-16.1c-0.6-1.6-1.6-5.5-3.1-11.6H222c-0.6,2.6-1.6,6.5-2.9,11.6l-5.1,16.1H230.5z M299.4,123.1c0,7.6-2.1,13.5-6.2,17.9
			c-3.7,3.9-8.2,5.9-13.7,5.9c-5.9,0-10.1-2.1-12.7-6.3v23.3H257v-47.9c0-4.7-0.1-9.6-0.4-14.6h8.7l0.6,7h0.2c3.3-5.3,8.3-8,15-8
			c5.2,0,9.6,2.1,13.1,6.2C297.7,110.9,299.4,116.4,299.4,123.1L299.4,123.1z M289.4,123.5c0-4.3-1-7.9-2.9-10.7
			c-2.1-2.9-5-4.4-8.6-4.4c-2.4,0-4.6,0.8-6.6,2.4c-2,1.6-3.3,3.7-3.9,6.4c-0.3,1-0.4,2-0.5,3v7.4c0,3.2,1,6,3,8.2
			c2,2.2,4.6,3.3,7.7,3.3c3.7,0,6.6-1.4,8.7-4.3C288.4,132,289.4,128.2,289.4,123.5z M350.6,123.1c0,7.6-2.1,13.5-6.2,17.9
			c-3.7,3.9-8.2,5.9-13.7,5.9c-5.9,0-10.1-2.1-12.7-6.3v23.3h-9.9v-47.9c0-4.7-0.1-9.6-0.4-14.6h8.7l0.6,7h0.2c3.3-5.3,8.3-8,15-8
			c5.2,0,9.6,2.1,13.1,6.2C348.8,110.9,350.6,116.4,350.6,123.1L350.6,123.1z M340.5,123.5c0-4.3-1-7.9-2.9-10.7
			c-2.1-2.9-5-4.4-8.6-4.4c-2.4,0-4.6,0.8-6.6,2.4c-2,1.6-3.3,3.7-3.9,6.4c-0.3,1.2-0.5,2.2-0.5,3v7.4c0,3.2,1,6,3,8.2
			c2,2.2,4.6,3.3,7.7,3.3c3.7,0,6.6-1.4,8.7-4.3C339.5,132,340.5,128.2,340.5,123.5z M407.7,128.6c0,5.2-1.8,9.5-5.5,12.8
			c-4,3.6-9.6,5.4-16.8,5.4c-6.6,0-11.9-1.3-16-3.8l2.3-8.2c4.3,2.6,9.1,3.8,14.3,3.8c3.7,0,6.6-0.8,8.7-2.5
			c2.1-1.7,3.1-3.9,3.1-6.7c0-2.5-0.9-4.6-2.6-6.3c-1.7-1.7-4.5-3.3-8.5-4.8c-10.8-4-16.2-9.9-16.2-17.7c0-5.1,1.9-9.2,5.7-12.4
			c3.8-3.2,8.9-4.8,15.1-4.8c5.6,0,10.3,1,14,2.9l-2.5,8c-3.5-1.9-7.4-2.8-11.8-2.8c-3.5,0-6.2,0.9-8.2,2.6
			c-1.6,1.5-2.5,3.4-2.5,5.6c0,2.4,0.9,4.5,2.8,6c1.6,1.5,4.6,3,9,4.8c5.3,2.1,9.2,4.6,11.7,7.5
			C406.5,120.8,407.7,124.4,407.7,128.6L407.7,128.6z M440.4,108.9h-10.9v21.6c0,5.5,1.9,8.2,5.8,8.2c1.8,0,3.2-0.1,4.4-0.5l0.3,7.5
			c-1.9,0.7-4.5,1.1-7.7,1.1c-3.9,0-6.9-1.2-9.1-3.6c-2.2-2.4-3.3-6.4-3.3-12v-22.4h-6.5v-7.4h6.5v-8.1l9.7-2.9v11.1h10.9
			L440.4,108.9L440.4,108.9z M489.4,123.3c0,6.8-2,12.4-5.9,16.8c-4.1,4.5-9.5,6.8-16.3,6.8c-6.5,0-11.7-2.2-15.6-6.5
			c-3.9-4.3-5.8-9.8-5.8-16.4c0-6.9,2-12.5,6-16.9c4-4.4,9.4-6.6,16.1-6.6c6.5,0,11.8,2.2,15.7,6.5
			C487.5,111.2,489.4,116.7,489.4,123.3L489.4,123.3z M479.2,123.5c0-4.1-0.9-7.6-2.6-10.5c-2.1-3.5-5-5.3-8.9-5.3
			c-4,0-7,1.8-9.1,5.3c-1.8,2.9-2.6,6.5-2.6,10.7c0,4.1,0.9,7.6,2.6,10.5c2.1,3.5,5.1,5.3,9,5.3c3.8,0,6.7-1.8,8.9-5.4
			C478.3,131.1,479.2,127.6,479.2,123.5L479.2,123.5z M521.5,110.1c-1-0.2-2.1-0.3-3.1-0.3c-3.5,0-6.2,1.3-8,3.9
			c-1.6,2.3-2.5,5.2-2.5,8.8v23.3H498v-30.4c0-4.7-0.1-9.3-0.3-14h8.6l0.4,8.5h0.3c1-2.9,2.7-5.3,4.9-7c2.1-1.5,4.6-2.4,7.1-2.4
			c0.9,0,1.7,0.1,2.5,0.2L521.5,110.1L521.5,110.1z M565.7,121.6c0,1.5-0.1,3-0.4,4.5h-29.6c0.1,4.4,1.5,7.8,4.3,10.1
			c2.5,2.1,5.7,3.1,9.7,3.1c4.4,0,8.4-0.7,12-2.1l1.5,6.8c-4.2,1.8-9.2,2.7-14.9,2.7c-6.9,0-12.3-2-16.2-6.1
			c-3.9-4.1-5.9-9.5-5.9-16.3c0-6.7,1.8-12.3,5.5-16.7c3.8-4.8,9-7.1,15.5-7.1c6.4,0,11.3,2.4,14.5,7.1
			C564.4,111.4,565.7,116,565.7,121.6L565.7,121.6z M556.3,119c0.1-2.9-0.6-5.5-1.9-7.6c-1.7-2.8-4.3-4.1-7.9-4.1
			c-3.2,0-5.9,1.3-7.9,4c-1.6,2.1-2.6,4.7-2.9,7.7L556.3,119L556.3,119z"/>
	</g>
	<g>
		<path class="st0" d="M209.4,62.5c-2.7,0-5.1-0.1-7.1-0.4V32.3c2.8-0.4,5.6-0.6,8.4-0.6c11.3,0,16.5,5.6,16.5,14.7
			C227.2,56.8,221,62.5,209.4,62.5z M211,35.5c-1.5,0-2.8,0.1-3.9,0.3v22.6c0.6,0.1,1.7,0.1,3.3,0.1c7.4,0,11.6-4.2,11.6-12.1
			C222,39.4,218.2,35.5,211,35.5z M243.4,62.7c-6.4,0-10.5-4.8-10.5-11.2c0-6.7,4.2-11.5,10.9-11.5c6.3,0,10.5,4.5,10.5,11.2
			C254.3,57.9,249.9,62.7,243.4,62.7L243.4,62.7z M243.6,43.5c-3.5,0-5.8,3.3-5.8,7.9c0,4.5,2.3,7.8,5.7,7.8c3.4,0,5.7-3.5,5.7-7.9
			C249.3,46.8,247,43.5,243.6,43.5L243.6,43.5z M290.7,40.4l-6.8,21.8h-4.5l-2.8-9.5c-0.7-2.3-1.3-4.7-1.8-7.1h-0.1
			c-0.4,2.4-1,4.8-1.8,7.1l-3,9.5h-4.5L259,40.4h5l2.5,10.4c0.6,2.5,1.1,4.8,1.5,7h0.1c0.4-1.8,0.9-4.1,1.8-7l3.1-10.4h4l3,10.2
			c0.7,2.5,1.3,4.9,1.8,7.2h0.1c0.3-2.2,0.8-4.6,1.5-7.2l2.7-10.2L290.7,40.4L290.7,40.4z M315.8,62.2H311V49.7
			c0-3.9-1.5-5.8-4.4-5.8c-2.9,0-4.9,2.5-4.9,5.3v13h-4.9V46.6c0-1.9,0-4-0.2-6.2h4.3l0.2,3.4h0.1c1.3-2.3,4-3.8,6.9-3.8
			c4.6,0,7.6,3.5,7.6,9.2L315.8,62.2L315.8,62.2z M329.2,62.2h-4.9V30.4h4.9V62.2z M346.9,62.7c-6.4,0-10.5-4.8-10.5-11.2
			c0-6.7,4.2-11.5,10.9-11.5c6.3,0,10.5,4.5,10.5,11.2C357.8,57.9,353.4,62.7,346.9,62.7L346.9,62.7z M347.1,43.5
			c-3.5,0-5.8,3.3-5.8,7.9c0,4.5,2.3,7.8,5.7,7.8c3.4,0,5.7-3.5,5.7-7.9C352.7,46.8,350.5,43.5,347.1,43.5L347.1,43.5z M376.9,62.2
			l-0.4-2.5h-0.1c-1.5,2-3.6,3-6.4,3c-3.9,0-6.7-2.7-6.7-6.4c0-5.4,4.7-8.2,12.8-8.2v-0.4c0-2.9-1.5-4.3-4.5-4.3
			c-2.2,0-4,0.5-5.7,1.6l-1-3.2c2-1.3,4.5-1.9,7.5-1.9c5.7,0,8.6,3,8.6,9v8c0,2.2,0.1,3.9,0.3,5.2L376.9,62.2L376.9,62.2z
			 M376.2,51.3c-5.4,0-8.1,1.3-8.1,4.4c0,2.3,1.4,3.4,3.3,3.4c2.5,0,4.8-1.9,4.8-4.4V51.3z M404.5,62.2l-0.2-3.5h-0.1
			c-1.4,2.6-3.7,4-7,4c-5.3,0-9.2-4.6-9.2-11.1c0-6.8,4-11.6,9.6-11.6c2.9,0,5,1,6.2,3h0.1V30.4h4.9v26c0,2.1,0.1,4.1,0.2,5.9
			L404.5,62.2L404.5,62.2z M403.8,49.4c0-3.1-2-5.7-5.1-5.7c-3.6,0-5.8,3.2-5.8,7.7c0,4.4,2.3,7.4,5.7,7.4c3.1,0,5.2-2.7,5.2-5.8
			L403.8,49.4L403.8,49.4z M439.5,62.7c-6.4,0-10.5-4.8-10.5-11.2c0-6.7,4.2-11.5,10.9-11.5c6.3,0,10.5,4.5,10.5,11.2
			C450.4,57.9,446,62.7,439.5,62.7L439.5,62.7z M439.7,43.5c-3.5,0-5.7,3.3-5.7,7.9c0,4.5,2.3,7.8,5.7,7.8c3.4,0,5.7-3.5,5.7-7.9
			C445.3,46.8,443.1,43.5,439.7,43.5L439.7,43.5z M476.5,62.2h-4.9V49.7c0-3.9-1.5-5.8-4.4-5.8c-2.9,0-4.8,2.5-4.8,5.3v13h-4.9V46.6
			c0-1.9,0-4-0.2-6.2h4.3l0.2,3.4h0.1c1.3-2.3,4-3.8,6.9-3.8c4.6,0,7.6,3.5,7.6,9.2V62.2z M509.1,44h-5.3v10.6c0,2.7,0.9,4,2.8,4
			c0.9,0,1.6-0.1,2.2-0.2l0.1,3.7c-0.9,0.4-2.2,0.5-3.8,0.5c-3.8,0-6.1-2.1-6.1-7.6V44h-3.2v-3.6h3.2v-4l4.8-1.4v5.4h5.3L509.1,44
			L509.1,44z M534.8,62.2H530V49.8c0-3.9-1.5-5.9-4.4-5.9c-2.5,0-4.9,1.7-4.9,5.2v13.2h-4.8V30.4h4.8v13.1h0.1
			c1.5-2.4,3.7-3.6,6.6-3.6c4.6,0,7.4,3.6,7.4,9.3L534.8,62.2L534.8,62.2z M561.1,52.5h-14.6c0.1,4.1,2.8,6.5,6.9,6.5
			c2.2,0,4.1-0.4,5.9-1l0.8,3.4c-2.1,0.9-4.5,1.3-7.3,1.3c-6.8,0-10.9-4.3-10.9-11c0-6.7,4.1-11.7,10.3-11.7c5.6,0,9.1,4.1,9.1,10.4
			C561.3,51,561.3,51.7,561.1,52.5L561.1,52.5z M556.7,49c0-3.4-1.7-5.8-4.8-5.8c-2.8,0-5,2.4-5.3,5.8H556.7L556.7,49z"/>
	</g>
</g>
</svg>
