<?xml version="1.0" encoding="utf-8"?>
<!-- Generator: Adobe Illustrator 24.0.3, SVG Export Plug-In . SVG Version: 6.00 Build 0)  -->
<svg version="1.1" id="Calque_1" xmlns="http://www.w3.org/2000/svg" xmlns:xlink="http://www.w3.org/1999/xlink" x="0px" y="0px"
	 viewBox="0 0 6137.8 2007.7" style="enable-background:new 0 0 6137.8 2007.7;" xml:space="preserve">
<style type="text/css">
	.st0{clip-path:url(#SVGID_2_);fill:url(#SVGID_3_);}
	.st1{clip-path:url(#SVGID_5_);fill:url(#SVGID_6_);}
	.st2{clip-path:url(#SVGID_8_);fill:url(#SVGID_9_);}
	.st3{clip-path:url(#SVGID_11_);fill:url(#SVGID_12_);}
	.st4{fill:#F9F9F9;}
	.st5{fill:#F9F9FA;}
</style>
<path d="M6137.8,1736.4c0,149.8-121.5,271.3-271.3,271.3H271.3C121.5,2007.7,0,1886.2,0,1736.4V271.3C0,121.5,121.5,0,271.3,0
	h5595.2c149.8,0,271.3,121.5,271.3,271.3L6137.8,1736.4L6137.8,1736.4L6137.8,1736.4z"/>
<g>
	<defs>
		<path id="SVGID_1_" d="M1330.1,883.8L1053.4,724c0,0-504.2-291.1-533.8-308.2c-29.6-17.1-59.2-6.7-59.2,29v1255.8
			c0,26.8,21.1,38.4,46.9,23.5c25.7-14.9,546.1-315.3,546.1-315.3l276.7-159.8c0,0,234.8-135.6,266-153.6
			c31.2-18,28.2-42.8,1.9-56.9C1571.7,1024.2,1330.1,883.8,1330.1,883.8L1330.1,883.8z"/>
	</defs>
	<clipPath id="SVGID_2_">
		<use xlink:href="#SVGID_1_"  style="overflow:visible;"/>
	</clipPath>
	
		<linearGradient id="SVGID_3_" gradientUnits="userSpaceOnUse" x1="3384.4907" y1="-947.2467" x2="3384.4907" y2="-833.9437" gradientTransform="matrix(12 0 0 12 -39810.7031 11753.4922)">
		<stop  offset="0" style="stop-color:#257CB0"/>
		<stop  offset="0.286" style="stop-color:#4A93B5"/>
		<stop  offset="0.767" style="stop-color:#78BCBB"/>
		<stop  offset="1" style="stop-color:#89CFBD"/>
	</linearGradient>
	<path class="st0" d="M460.4,386.5v1359.6l685.6-679.8L460.4,386.5z"/>
</g>
<g>
	<defs>
		<path id="SVGID_4_" d="M1330.1,883.8L1053.4,724c0,0-504.2-291.1-533.8-308.2c-29.6-17.1-59.2-6.7-59.2,29v1255.8
			c0,26.8,21.1,38.4,46.9,23.5c25.7-14.9,546.1-315.3,546.1-315.3l276.7-159.8c0,0,234.8-135.6,266-153.6
			c31.2-18,28.2-42.8,1.9-56.9C1571.7,1024.2,1330.1,883.8,1330.1,883.8L1330.1,883.8z"/>
	</defs>
	<clipPath id="SVGID_5_">
		<use xlink:href="#SVGID_4_"  style="overflow:visible;"/>
	</clipPath>
	
		<linearGradient id="SVGID_6_" gradientUnits="userSpaceOnUse" x1="3355.9238" y1="-919.1267" x2="3428.4028" y2="-919.1267" gradientTransform="matrix(12 0 0 12 -39810.7031 11753.4922)">
		<stop  offset="0" style="stop-color:#52C1AD"/>
		<stop  offset="1" style="stop-color:#DEE89A"/>
	</linearGradient>
	<path class="st1" d="M1330.1,883.8L1053.4,724l-593-342.4v4.9l685.6,679.8L1330.1,883.8z"/>
</g>
<g>
	<defs>
		<path id="SVGID_7_" d="M1330.1,883.8L1053.4,724c0,0-504.2-291.1-533.8-308.2c-29.6-17.1-59.2-6.7-59.2,29v1255.8
			c0,26.8,21.1,38.4,46.9,23.5c25.7-14.9,546.1-315.3,546.1-315.3l276.7-159.8c0,0,234.8-135.6,266-153.6
			c31.2-18,28.2-42.8,1.9-56.9C1571.7,1024.2,1330.1,883.8,1330.1,883.8L1330.1,883.8z"/>
	</defs>
	<clipPath id="SVGID_8_">
		<use xlink:href="#SVGID_7_"  style="overflow:visible;"/>
	</clipPath>
	
		<linearGradient id="SVGID_9_" gradientUnits="userSpaceOnUse" x1="3392.1628" y1="-890.5947" x2="3392.1628" y2="-833.5317" gradientTransform="matrix(12 0 0 12 -39810.7031 11753.4922)">
		<stop  offset="0" style="stop-color:#EC413D"/>
		<stop  offset="0.167" style="stop-color:#DA4452"/>
		<stop  offset="0.575" style="stop-color:#B0487A"/>
		<stop  offset="0.862" style="stop-color:#954A92"/>
		<stop  offset="1" style="stop-color:#8A4A9D"/>
	</linearGradient>
	<path class="st2" d="M460.4,1746.2v4.9l593-342.4l276.7-159.8L1146,1066.4L460.4,1746.2z"/>
</g>
<g>
	<defs>
		<path id="SVGID_10_" d="M1330.1,883.8L1053.4,724c0,0-504.2-291.1-533.8-308.2c-29.6-17.1-59.2-6.7-59.2,29v1255.8
			c0,26.8,21.1,38.4,46.9,23.5c25.7-14.9,546.1-315.3,546.1-315.3l276.7-159.8c0,0,234.8-135.6,266-153.6
			c31.2-18,28.2-42.8,1.9-56.9C1571.7,1024.2,1330.1,883.8,1330.1,883.8L1330.1,883.8z"/>
	</defs>
	<clipPath id="SVGID_11_">
		<use xlink:href="#SVGID_10_"  style="overflow:visible;"/>
	</clipPath>
	
		<linearGradient id="SVGID_12_" gradientUnits="userSpaceOnUse" x1="3433.9082" y1="-905.8117" x2="3433.9082" y2="-875.3797" gradientTransform="matrix(12 0 0 12 -39810.7031 11753.4922)">
		<stop  offset="0" style="stop-color:#F58879"/>
		<stop  offset="0.119" style="stop-color:#F69079"/>
		<stop  offset="0.713" style="stop-color:#FCB877"/>
		<stop  offset="1" style="stop-color:#FEC874"/>
	</linearGradient>
	<path class="st3" d="M1330.1,883.8L1146,1066.4l184.1,182.6l316.3-182.6L1330.1,883.8z"/>
</g>
<path class="st4" d="M4776.7,1332.1c-25.8,0-49.2-4.8-70.5-14.2c-21.3-9.5-39.2-24.1-53.6-43.8h-4.3c2.9,23.1,4.3,45,4.3,65.7v162.7
	h-59.9V929.5h48.7l8.3,54.1h2.9c15.4-21.7,33.3-37.3,53.8-46.9c20.4-9.6,43.9-14.4,70.3-14.4c52.4,0,92.9,17.9,121.4,53.8
	c28.5,35.8,42.8,86.1,42.8,150.8c0,64.9-14.5,115.4-43.5,151.4C4868.4,1314.2,4828.2,1332.1,4776.7,1332.1L4776.7,1332.1z
	 M4768,973.2c-40.4,0-69.6,11.2-87.7,33.6c-18,22.4-27.3,58-27.8,106.8v13.3c0,55.6,9.3,95.3,27.8,119.3s48.2,35.9,89.1,35.9
	c34.2,0,60.9-13.8,80.3-41.5c19.3-27.6,29-65.8,29-114.4c0-49.3-9.7-87.1-29-113.5C4830.4,986.3,4803.2,973.2,4768,973.2L4768,973.2
	z M5079.5,1324.9h-59.9V763.5h59.9V1324.9z M5423.8,1324.9l-11.9-56.3h-2.9c-19.7,24.8-39.4,41.6-59,50.3
	c-19.6,8.8-44.1,13.2-73.4,13.2c-39.2,0-69.9-10.1-92.2-30.3c-22.3-20.2-33.4-48.9-33.4-86.2c0-79.8,63.9-121.7,191.6-125.6
	l67.1-2.2v-24.5c0-31-6.7-54-20-68.7c-13.3-14.8-34.7-22.2-64-22.2c-33,0-70.2,10.1-111.8,30.3l-18.4-45.8
	c19.5-10.6,40.8-18.9,64.1-24.9c23.2-6,46.5-9,69.8-9c47.1,0,82.1,10.5,104.8,31.4c22.7,20.9,34.1,54.5,34.1,100.7v269.8
	L5423.8,1324.9L5423.8,1324.9L5423.8,1324.9z M5288.5,1282.7c37.3,0,66.5-10.2,87.8-30.7c21.3-20.4,31.9-49.1,31.9-85.9v-35.7
	l-59.9,2.5c-47.6,1.7-81.9,9.1-103,22.2c-21,13.1-31.6,33.5-31.6,61.2c0,21.6,6.5,38.1,19.7,49.4
	C5246.6,1277.1,5265,1282.7,5288.5,1282.7L5288.5,1282.7z M5503,929.5h64.2l86.6,225.5c19,51.5,30.8,88.6,35.4,111.5h2.9
	c3.1-12.3,9.7-33.3,19.7-63c10-29.7,42.6-121,97.9-274h64.2l-169.9,450.3c-16.8,44.5-36.5,76.1-59,94.7
	c-22.5,18.6-50.1,27.9-82.8,27.9c-18.3,0-36.3-2-54.1-6.1v-48c13.2,2.9,28,4.3,44.4,4.3c41.1,0,70.5-23.1,88-69.3l22-56.3
	L5503,929.5L5503,929.5z M3667.3,966.3c19,15.7,58.7,48.8,58.7,111.7c0,61.2-34.7,90.2-69.5,117.4c-10.8,10.7-23.2,22.4-23.2,40.6
	c0,18.2,12.4,28.1,21.5,35.5l29.8,23.1c36.4,30.6,69.4,58.8,69.4,115.8c0,77.7-75.3,156.3-217.5,156.3
	c-119.9,0-177.8-57-177.8-118.3c0-29.8,14.8-71.9,63.7-100.9c51.2-31.4,120.8-35.5,158-38.1c-11.6-14.9-24.8-30.6-24.8-56.2
	c0-14,4.2-22.3,8.3-32.3c-9.1,0.8-18.2,1.7-26.5,1.7c-87.6,0-137.3-65.3-137.3-129.8c0-38.1,17.4-80.3,52.9-110.8
	c47.2-38.9,103.4-45.5,148.1-45.5h170.3l-52.9,29.8L3667.3,966.3L3667.3,966.3L3667.3,966.3z M3608.6,1333.5
	c-6.6-0.9-10.8-0.9-19-0.9c-7.4,0-52.2,1.7-86.9,13.3c-18.2,6.6-71.1,26.4-71.1,85.2c0,58.7,57.1,100.9,145.6,100.9
	c79.3,0,121.6-38.1,121.6-89.4C3698.7,1400.4,3671.4,1378.2,3608.6,1333.5L3608.6,1333.5z M3632.6,1176.3c19-19,20.6-45.5,20.6-60.4
	c0-59.5-35.5-152.2-104.2-152.2c-21.5,0-44.7,10.7-57.9,27.3c-14,17.4-18.2,39.7-18.2,61.2c0,55.4,32.3,147.2,103.4,147.2
	C3597,1199.5,3619.3,1189.6,3632.6,1176.3L3632.6,1176.3z M3146.6,1320.2c-131.3,0-201.5-102.4-201.5-194.9
	c0-108.2,88.3-200.6,213.9-200.6c121.3,0,197.3,94.9,197.3,194.9C3356.4,1217,3281.3,1320.2,3146.6,1320.2L3146.6,1320.2z
	 M3249.8,1253.4c19.8-26.4,24.8-59.5,24.8-91.7c0-72.7-34.7-211.4-137.1-211.4c-27.2,0-54.5,10.8-74.3,28.1
	c-32.2,28.9-38,65.2-38,100.8c0,81.7,40.5,216.2,140.4,216.2C3197.9,1295.4,3230.9,1279.8,3249.8,1253.4L3249.8,1253.4z
	 M2699.1,1320.2c-131.3,0-201.5-102.4-201.5-194.9c0-108.2,88.4-200.6,213.9-200.6c121.4,0,197.3,94.9,197.3,194.9
	C2908.8,1217,2833.7,1320.2,2699.1,1320.2z M2802.3,1253.4c19.8-26.4,24.8-59.5,24.8-91.7c0-72.7-34.7-211.4-137.1-211.4
	c-27.2,0-54.5,10.8-74.3,28.1c-32.2,28.9-38,65.2-38,100.8c0,81.7,40.4,216.2,140.4,216.2
	C2750.3,1295.4,2783.3,1279.8,2802.3,1253.4z M2434.5,1307.3l-118.7,27.4c-48.2,7.5-91.3,14.1-137,14.1
	c-229.2,0-316.3-168.5-316.3-300.5c0-161,123.7-310.4,335.4-310.4c44.8,0,88,6.6,127,17.4c62.3,17.4,91.3,39,109.6,51.5l-68.9,65.6
	l-29,6.6l20.7-33.2c-28.2-27.4-79.7-78-177.6-78c-131.2,0-230,99.7-230,244.9c0,156,112.9,303,293.9,303
	c53.2,0,80.5-10.8,105.4-20.8v-133.6l-125.3,6.6l66.4-35.7h176l-21.6,20.7c-5.9,5-6.7,6.7-8.3,13.3c-0.9,7.5-1.6,31.6-1.6,39.9
	L2434.5,1307.3L2434.5,1307.3L2434.5,1307.3z"/>
<path class="st4" d="M3929.7,1283.4c-27.4-2.5-33.1-7.5-33.1-39.9V773.7c0.2-1.8,0.3-3.6,0.4-5.4c3.3-29,11.6-34,37.4-49h-118.8
	l-62.3,29.9h63.5v0.4l0-0.3v512.5c0,16.6-3.3,19.1-22.4,44h147l30.7-18.2C3958,1285.8,3943.8,1285,3929.7,1283.4L3929.7,1283.4z
	 M4267.5,1291c-9,5-18.1,10.8-27.1,14.8c-27.3,12.4-55.3,15.7-80.1,15.7c-26.3,0-67.6-1.7-109.7-32.2c-58.5-41.3-84-112.2-84-174
	c0-127.8,103.9-190.4,188.8-190.4c29.7,0,60.2,7.4,85,23.1c41.2,27.2,51.9,62.6,57.6,81.6l-193.7,78.3l-63.5,4.9
	c20.6,104.7,91.5,165.7,169.8,165.7c42,0,72.6-14.8,100.6-28.8L4267.5,1291L4267.5,1291z M4190,1045.3c15.6-5.7,23.9-10.7,23.9-22.2
	c0-33-37.1-70.9-81.6-70.9c-33,0-94.8,25.6-94.8,114.6c0,14,1.7,28.8,2.5,43.7L4190,1045.3L4190,1045.3z M4347.1,930.6V985h-6.6
	v-54.4h-18V925h42.6v5.6H4347.1L4347.1,930.6z M4421.2,985v-54.9h-0.3l-16.8,54.9h-5.2l-16.9-54.9h-0.2V985h-6v-60h10.3l15.3,48.5
	h0.2l15.1-48.5h10.4v60H4421.2L4421.2,985z"/>
<path class="st5" d="M2027.4,576.2h-41.3c0-5.7-3.9-21.7-11.7-48.2h-59.6c-8.1,26-12.1,42.1-12.1,48.2H1864c0-3.3,10-30.9,30.1-82.5
	c20.1-51.6,30.1-80.1,30.1-85.3h48.7c0,4.9,9.1,32.9,27.3,84.1S2027.4,571.5,2027.4,576.2z M1967.9,503.3
	c-14.7-44.3-22-68.3-22-71.9h-2.1c0,3.3-7.6,27.3-22.8,71.9L1967.9,503.3L1967.9,503.3z M2193.7,576.2h-31.8
	c0-3.5-11.8-22.1-35.4-55.8c-24.7-35.5-38.8-59.8-42.3-72.8h-2.1c2.1,18.8,3.2,35.8,3.2,51c0,21.2,0.6,47.1,1.8,77.6h-31.7
	c1.3-26.6,1.9-55.9,1.9-87.8c0-31.4-0.6-58.1-1.9-80.1h38.3c0,4.6,10.6,22.7,31.8,54.5c22.6,33.8,35.6,56.7,38.9,68.7h1.9
	c-2.1-19.2-3.1-36.3-3.1-51.6c0-23.3-0.6-47.2-1.8-71.7h32.2c-1.2,21.3-1.8,48-1.8,80.1C2191.9,520.7,2192.5,550,2193.7,576.2z
	 M2380.5,486.5c0,24.4-7.8,45.7-23.5,63.9c-15.6,18.2-37.6,27.3-65.7,27.3c-12.7,0-30.3-0.5-52.6-1.5c1.1-26,1.7-55.2,1.7-87.8
	c0-31.3-0.6-58-1.7-80.1h22.6c3.7,0,9.2-0.1,16.5-0.4c7.3-0.3,12.1-0.4,14.3-0.4c31,0,53.5,7.7,67.5,23.2
	C2373.5,446.2,2380.5,464.8,2380.5,486.5L2380.5,486.5z M2345.3,492c0-16.5-4.8-30.4-14.4-41.7c-9.6-11.3-24.3-16.9-44.1-16.9
	c-3.7,0-8.8,0.4-15.2,1.2c0.9,17.2,1.3,35.1,1.3,53.9c0,20.5,0.4,40.9,1.3,61.1c5.5,1.1,11.1,1.7,16.8,1.7
	c18.5,0,32.2-5.7,41.1-17.2C2340.8,522.5,2345.3,508.5,2345.3,492L2345.3,492z M2552.8,576.2h-38.2c-10-30.4-17.6-49.2-22.9-56.3
	c-5.3-7.1-13.9-10.7-25.8-10.7c-5,0-9.8,0-14.3,0.1c0,22.1,0.4,44.4,1.2,66.9h-35.8c1.1-26,1.7-55.2,1.7-87.8
	c0-31.3-0.6-58-1.7-80.1h22.3c2.6,0,8-0.1,16.2-0.4s15.8-0.4,22.8-0.4c39.4,0,59.2,13.5,59.2,40.5c0,21.4-11.3,36.3-33.8,44.7v1.9
	c8.7,2.4,16.3,9.2,22.8,20.3C2532.9,526.1,2541.7,546.5,2552.8,576.2z M2504.4,457.6c0-17.1-11-25.7-33-25.7
	c-8.1,0-15.2,0.6-21.4,1.8c0.9,13.3,1.4,30.7,1.4,52.1c4.7,0.2,8.7,0.3,12,0.3C2490.8,486.1,2504.4,476.6,2504.4,457.6z
	 M2737.6,489.2c0,26.4-8.1,48.3-24.2,65.6c-16.2,17.4-36.1,26-59.9,26c-22.7,0-41.7-8-57-23.9c-15.3-15.9-22.9-36.2-22.9-60.8
	c0-26.4,8.1-48.3,24.2-65.6c16.2-17.4,36.1-26,59.9-26c22.7,0,41.7,7.9,57,23.8C2729.9,444.2,2737.6,464.5,2737.6,489.2
	L2737.6,489.2z M2702,492.9c0-18-4.6-32.5-13.8-43.7c-9.2-11.2-20.5-16.8-34-16.8c-12.6,0-23.2,5.6-32,16.9S2609,474.8,2609,492
	c0,17.9,4.6,32.4,13.9,43.6c9.2,11.2,20.6,16.8,34,16.8c12.5,0,23.2-5.7,32-17C2697.6,524.2,2702,510,2702,492.9L2702,492.9z
	 M2810.4,576.2H2774c1.1-26.6,1.7-55.9,1.7-87.8c0-31.4-0.6-58.1-1.7-80.1h36.5c-1.1,21.7-1.7,48.3-1.7,80.1
	C2808.8,520.8,2809.3,550.1,2810.4,576.2z M2997.3,486.5c0,24.4-7.8,45.7-23.5,63.9c-15.6,18.2-37.6,27.3-65.7,27.3
	c-12.7,0-30.3-0.5-52.6-1.5c1.1-26,1.7-55.2,1.7-87.8c0-31.3-0.6-58-1.7-80.1h22.6c3.7,0,9.2-0.1,16.5-0.4
	c7.3-0.3,12.1-0.4,14.3-0.4c31,0,53.5,7.7,67.5,23.2C2990.3,446.2,2997.3,464.8,2997.3,486.5L2997.3,486.5z M2962.1,492
	c0-16.5-4.8-30.4-14.4-41.7c-9.6-11.3-24.3-16.9-44.1-16.9c-3.7,0-8.8,0.4-15.2,1.2c0.9,17.2,1.3,35.1,1.3,53.9
	c0,20.5,0.4,40.9,1.3,61.1c5.5,1.1,11.1,1.7,16.8,1.7c18.5,0,32.2-5.7,41.1-17.2C2957.6,522.5,2962.1,508.5,2962.1,492z
	 M3245.2,576.2h-41.3c0-5.7-3.9-21.7-11.7-48.2h-59.6c-8.1,26-12.1,42.1-12.1,48.2h-38.8c0-3.3,10-30.9,30.1-82.5
	c20.1-51.6,30.1-80.1,30.1-85.3h48.7c0,4.9,9.1,32.9,27.3,84.1S3245.2,571.5,3245.2,576.2L3245.2,576.2z M3185.6,503.3
	c-14.7-44.3-22.1-68.3-22.1-71.9h-2.1c0,3.3-7.6,27.3-22.8,71.9L3185.6,503.3L3185.6,503.3z M3395.5,452.3
	c0,20.5-7.6,35.7-22.9,45.5s-34,14.7-56.1,14.7c-4,0-6.9-0.1-8.6-0.3c0,16.2,0.5,37.5,1.4,63.9H3273c1.1-24.8,1.7-54.1,1.7-87.8
	c0-30.9-0.6-57.6-1.7-80.1h22.4c3.2,0,9.3-0.1,18.3-0.4s16.8-0.4,23.5-0.4c16.3,0,30.1,3.7,41.4,11.1
	C3389.9,426.1,3395.5,437.3,3395.5,452.3L3395.5,452.3z M3362.3,459.4c0-18.4-12.2-27.6-36.6-27.6c-6.1,0-12.6,0.6-19.3,1.9
	c0.9,16.2,1.4,34.6,1.4,55.2c2.1,0.2,4.6,0.3,7.5,0.3C3346.6,489.2,3362.3,479.2,3362.3,459.4z M3550.1,452.3
	c0,20.5-7.6,35.7-22.9,45.5c-15.3,9.8-34,14.7-56.1,14.7c-4,0-6.9-0.1-8.6-0.3c0,16.2,0.5,37.5,1.4,63.9h-36.2
	c1.1-24.8,1.7-54.1,1.7-87.8c0-30.9-0.6-57.6-1.7-80.1h22.4c3.2,0,9.3-0.1,18.3-0.4s16.8-0.4,23.5-0.4c16.3,0,30.1,3.7,41.4,11.1
	C3544.5,426.1,3550.1,437.3,3550.1,452.3L3550.1,452.3z M3516.9,459.4c0-18.4-12.2-27.6-36.6-27.6c-6.1,0-12.6,0.6-19.3,1.9
	c0.9,16.2,1.4,34.6,1.4,55.2c2.1,0.2,4.6,0.3,7.5,0.3C3501.2,489.2,3516.9,479.2,3516.9,459.4z M3802.9,489.2
	c0,26.4-8.1,48.3-24.2,65.6c-16.2,17.4-36.1,26-59.9,26c-22.7,0-41.7-8-57-23.9c-15.3-15.9-22.9-36.2-22.9-60.8
	c0-26.4,8.1-48.3,24.2-65.6c16.2-17.4,36.1-26,59.9-26c22.7,0,41.7,7.9,57,23.8C3795.3,444.2,3802.9,464.5,3802.9,489.2
	L3802.9,489.2z M3767.3,492.9c0-18-4.6-32.5-13.8-43.7s-20.5-16.8-34-16.8c-12.6,0-23.2,5.6-32,16.9s-13.2,25.5-13.2,42.7
	c0,17.9,4.6,32.4,13.9,43.6c9.2,11.2,20.6,16.8,34,16.8c12.6,0,23.2-5.7,32-17C3762.9,524.2,3767.3,510,3767.3,492.9L3767.3,492.9z
	 M3977.6,576.2h-31.8c0-3.5-11.8-22.1-35.4-55.8c-24.7-35.5-38.8-59.8-42.3-72.8h-2.1c2.1,18.8,3.2,35.8,3.2,51
	c0,21.2,0.6,47.1,1.8,77.6h-31.7c1.3-26.6,1.9-55.9,1.9-87.8c0-31.4-0.6-58.1-1.9-80.1h38.3c0,4.6,10.6,22.7,31.8,54.5
	c22.6,33.8,35.6,56.7,38.9,68.7h1.9c-2.1-19.2-3.1-36.3-3.1-51.6c0-23.3-0.6-47.2-1.8-71.7h32.2c-1.2,21.3-1.8,48-1.8,80.1
	C3975.8,520.7,3976.4,550,3977.6,576.2z"/>
</svg>
